<svg id="_36.信箱" data-name="36.信箱" xmlns="http://www.w3.org/2000/svg" width="20" height="20" viewBox="0 0 20 20">
  <rect id="Rectangle" width="20" height="20" fill="none"/>
  <g id="Group-29" transform="translate(0 2.5)">
    <path id="Rectangle-Copy-150" d="M2.5,0h15A2.5,2.5,0,0,1,20,2.5v10A2.5,2.5,0,0,1,17.5,15H2.5A2.5,2.5,0,0,1,0,12.5V2.5A2.5,2.5,0,0,1,2.5,0Zm0,1.667a.833.833,0,0,0-.833.833v10a.833.833,0,0,0,.833.833h15a.833.833,0,0,0,.833-.833V2.5a.833.833,0,0,0-.833-.833Z" fill="#979797"/>
    <path id="Path-10-Copy" d="M4.505,6.6,9.682,8.818a2.5,2.5,0,0,0,1.97,0L16.828,6.6a.833.833,0,1,0-.657-1.532L10.995,7.286a.833.833,0,0,1-.657,0L5.162,5.067A.833.833,0,1,0,4.505,6.6Z" transform="translate(-0.667 -0.833)" fill="#979797"/>
  </g>
</svg>
