<svg id="_20.學歷" data-name="20.學歷" xmlns="http://www.w3.org/2000/svg" width="20" height="20" viewBox="0 0 20 20">
  <rect id="Rectangle" width="20" height="20" fill="none"/>
  <path id="Path" d="M15,8v7.824H5V8A.833.833,0,1,0,3.333,8v7.824A1.667,1.667,0,0,0,5,17.488H15a1.667,1.667,0,0,0,1.667-1.667V8A.833.833,0,1,0,15,8Z" fill="#979797"/>
  <path id="Path-3" d="M.549,7.45a.833.833,0,0,1,0-1.566L9.715,2.55a.833.833,0,0,1,.57,0l9.167,3.333a.833.833,0,0,1,0,1.566l-9.167,3.333a.833.833,0,0,1-.57,0Zm2.723-.783L10,9.113l6.728-2.447L10,4.22Z" fill="#979797"/>
  <path id="Line-5-Copy" d="M0,6.667V15a.833.833,0,0,0,1.667,0V6.667A.833.833,0,0,0,0,6.667Z" fill="#979797"/>
</svg>
