<svg id="_25.工作經驗" data-name="25.工作經驗" xmlns="http://www.w3.org/2000/svg" width="20" height="20" viewBox="0 0 20 20">
  <rect id="Rectangle" width="20" height="20" fill="none"/>
  <path id="Combined-Shape" d="M2.5,2.5h15A2.5,2.5,0,0,1,20,5V15a2.5,2.5,0,0,1-2.5,2.5H2.5A2.5,2.5,0,0,1,0,15V5A2.5,2.5,0,0,1,2.5,2.5Zm0,1.667A.833.833,0,0,0,1.667,5V15a.833.833,0,0,0,.833.833h15A.833.833,0,0,0,18.333,15V5a.833.833,0,0,0-.833-.833Z" fill="#979797"/>
  <path id="EXP" d="M2.5,7.083H6.458V8.1H3.8V9.417H6.267v1.017H3.8V11.9H6.533v1.017H2.5ZM9.808,9.008l1.317-1.925h1.45L10.592,9.95l2.058,2.967H11.2L9.808,10.892,8.417,12.917H6.967L9.025,9.95,7.042,7.083h1.45Zm7.925-.017a2,2,0,0,1-.163.833,1.6,1.6,0,0,1-.467.6,2.059,2.059,0,0,1-.737.363,3.631,3.631,0,0,1-.975.121h-.717v2.008h-1.3V7.083h2.017a3.631,3.631,0,0,1,.975.121,2.059,2.059,0,0,1,.737.362,1.606,1.606,0,0,1,.467.6A1.971,1.971,0,0,1,17.733,8.992Zm-1.317,0a.846.846,0,0,0-.275-.713,1.42,1.42,0,0,0-.867-.212h-.6V9.925h.6a1.4,1.4,0,0,0,.867-.217A.859.859,0,0,0,16.417,8.992Z" fill="#999"/>
</svg>
