<svg id="_29.工種類別" data-name="29.工種類別" xmlns="http://www.w3.org/2000/svg" width="20" height="20" viewBox="0 0 20 20">
  <rect id="Rectangle" width="20" height="20" fill="none"/>
  <path id="Rectangle-2" data-name="Rectangle" d="M2.5,4.167h15a2.5,2.5,0,0,1,2.5,2.5v10a2.5,2.5,0,0,1-2.5,2.5H2.5a2.5,2.5,0,0,1-2.5-2.5v-10A2.5,2.5,0,0,1,2.5,4.167Zm0,1.667a.833.833,0,0,0-.833.833v10A.833.833,0,0,0,2.5,17.5h15a.833.833,0,0,0,.833-.833v-10a.833.833,0,0,0-.833-.833Z" fill="#979797"/>
  <path id="Line" d="M.833,14.167H19.167V12.5H.833Z" fill="#979797"/>
  <path id="Path" d="M6.667,5V3.333A.833.833,0,0,1,7.5,2.5h5a.833.833,0,0,1,.833.833V5H15V3.333a2.5,2.5,0,0,0-2.5-2.5h-5A2.5,2.5,0,0,0,5,3.333V5Z" fill="#979797"/>
  <path id="Line-3" d="M13.333,11.667V15A.833.833,0,0,0,15,15V11.667a.833.833,0,1,0-1.667,0Z" fill="#979797"/>
  <path id="Line-3-Copy" d="M5,11.667V15a.833.833,0,0,0,1.667,0V11.667a.833.833,0,1,0-1.667,0Z" fill="#979797"/>
</svg>
