<svg id="_19.招聘人數" data-name="19.招聘人數" xmlns="http://www.w3.org/2000/svg" width="20" height="20" viewBox="0 0 20 20">
  <rect id="Rectangle-Copy-32" width="20" height="20" fill="none"/>
  <path id="Oval-Copy-17" d="M6.667,8.333A4.167,4.167,0,1,0,2.5,4.167,4.167,4.167,0,0,0,6.667,8.333Zm0-1.667a2.5,2.5,0,1,1,2.5-2.5A2.5,2.5,0,0,1,6.667,6.667Z" fill="#979797"/>
  <path id="Oval-Copy-18" d="M15,9.167a3.333,3.333,0,1,0-3.333-3.333A3.333,3.333,0,0,0,15,9.167ZM15,7.5a1.667,1.667,0,1,1,1.667-1.667A1.667,1.667,0,0,1,15,7.5Z" fill="#979797"/>
  <path id="Rectangle-Copy-56" d="M4.167,10h5a4.167,4.167,0,0,1,4.167,4.167v5A.833.833,0,0,1,12.5,20H.833A.833.833,0,0,1,0,19.167v-5A4.167,4.167,0,0,1,4.167,10Zm7.5,4.167a2.5,2.5,0,0,0-2.5-2.5h-5a2.5,2.5,0,0,0-2.5,2.5v4.167h10Z" fill="#979797"/>
  <path id="Path-Copy-19" d="M15.832,17.5a.833.833,0,1,0,0,1.667h3.333A.833.833,0,0,0,20,18.333V14.42a3.587,3.587,0,0,0-3.587-3.587H15A.833.833,0,0,0,15,12.5h1.411a1.92,1.92,0,0,1,1.92,1.92V17.5Z" fill="#979797"/>
</svg>
