<svg id="_18.薪酬" data-name="18.薪酬" xmlns="http://www.w3.org/2000/svg" width="20" height="20" viewBox="0 0 20 20">
  <rect id="Rectangle" width="20" height="20" fill="none"/>
  <path id="S" d="M5.333,12.016c-.021-.754,1.344-.687,1.411-.123a3.106,3.106,0,0,0,.466,1.389,2.546,2.546,0,0,0,1.137.877,4.313,4.313,0,0,0,1.735.335,4.163,4.163,0,0,0,1.511-.254,2.1,2.1,0,0,0,.975-.7,1.613,1.613,0,0,0,.32-.966,1.466,1.466,0,0,0-.308-.927,2.285,2.285,0,0,0-1.018-.666,19.919,19.919,0,0,0-2.012-.55,10.3,10.3,0,0,1-2.182-.7A3.058,3.058,0,0,1,6.162,8.68a2.571,2.571,0,0,1-.4-1.4,2.864,2.864,0,0,1,.486-1.6A3.007,3.007,0,0,1,7.669,4.551a5.39,5.39,0,0,1,2.074-.385,5.675,5.675,0,0,1,2.217.4A3.2,3.2,0,0,1,13.436,5.76a3.411,3.411,0,0,1,.555,1.778c.026.662-1.357.821-1.434.108a2.308,2.308,0,0,0-.783-1.616A3.05,3.05,0,0,0,9.8,5.483a3.165,3.165,0,0,0-1.978.5,1.488,1.488,0,0,0-.621,1.2,1.282,1.282,0,0,0,.439,1,5.961,5.961,0,0,0,2.255.8,14.937,14.937,0,0,1,2.5.72A3.425,3.425,0,0,1,13.86,10.85a2.8,2.8,0,0,1,.47,1.6,3.065,3.065,0,0,1-.517,1.7,3.4,3.4,0,0,1-1.484,1.239,5.178,5.178,0,0,1-2.178.443,6.514,6.514,0,0,1-2.571-.446,3.6,3.6,0,0,1-1.627-1.343A3.8,3.8,0,0,1,5.333,12.016Z" fill="#999"/>
  <rect id="Rectangle-2" data-name="Rectangle" width="1.667" height="15" rx="0.833" transform="translate(9.167 2.5)" fill="#999"/>
  <path id="Oval" d="M10,20A10,10,0,1,0,0,10,10,10,0,0,0,10,20Zm0-1.667A8.333,8.333,0,1,1,18.333,10,8.333,8.333,0,0,1,10,18.333Z" fill="#979797"/>
</svg>
