<svg id="_22.行業類別" data-name="22.行業類別" xmlns="http://www.w3.org/2000/svg" width="20" height="20" viewBox="0 0 20 20">
  <rect id="Rectangle" width="20" height="20" fill="none"/>
  <path id="Path" d="M1.667,18.333V1.667H10v5h1.667v-5A1.667,1.667,0,0,0,10,0H1.667A1.667,1.667,0,0,0,0,1.667V20H7.5V18.333Z" fill="#979797"/>
  <path id="Rectangle-2" data-name="Rectangle" d="M9.167,5h9.167A1.667,1.667,0,0,1,20,6.667V20H7.5V6.667A1.667,1.667,0,0,1,9.167,5Zm9.167,1.667H9.167V18.333h9.167Z" fill="#979797"/>
  <g id="Group-39" transform="translate(3.333 4.167)">
    <rect id="Rectangle-Copy-48" width="1.667" height="1.667" fill="#999"/>
    <rect id="Rectangle-Copy-50" width="1.667" height="1.667" transform="translate(0 3.333)" fill="#999"/>
    <rect id="Rectangle-Copy-58" width="1.667" height="1.667" transform="translate(0 6.667)" fill="#999"/>
    <rect id="Rectangle-Copy-69" width="1.667" height="1.667" transform="translate(0 10)" fill="#999"/>
    <rect id="Rectangle-Copy-49" width="1.667" height="1.667" transform="translate(3.333)" fill="#999"/>
    <rect id="Rectangle-Copy-68" width="1.667" height="1.667" transform="translate(3.333 3.333)" fill="#999"/>
    <rect id="Rectangle-Copy-70" width="1.667" height="1.667" transform="translate(3.333 6.667)" fill="#999"/>
    <rect id="Rectangle-Copy-71" width="1.667" height="1.667" transform="translate(3.333 10)" fill="#999"/>
  </g>
  <g id="Group-42" transform="translate(10.833 8.333)">
    <rect id="Rectangle-Copy-22" width="1.667" height="1.667" transform="translate(4.167)" fill="#999"/>
    <rect id="Rectangle-Copy-41" width="1.667" height="1.667" fill="#999"/>
    <rect id="Rectangle-Copy-43" width="1.667" height="1.667" transform="translate(4.167 3.333)" fill="#999"/>
    <rect id="Rectangle-Copy-44" width="1.667" height="1.667" transform="translate(0 3.333)" fill="#999"/>
    <rect id="Rectangle-Copy-46" width="1.667" height="1.667" transform="translate(4.167 6.667)" fill="#999"/>
    <rect id="Rectangle-Copy-57" width="1.667" height="1.667" transform="translate(0 6.667)" fill="#999"/>
  </g>
</svg>
