<svg id="_87.語言條件" data-name="87.語言條件" xmlns="http://www.w3.org/2000/svg" width="20" height="20.001" viewBox="0 0 20 20.001">
  <rect id="Rectangle-Copy-10" width="20" height="20" fill="none"/>
  <path id="Combined-Shape" d="M17.5,2A2.5,2.5,0,0,1,20,4.5h0v9.63a2.5,2.5,0,0,1-2.5,2.5h-.25V19.5a.834.834,0,0,1-1.166.764h0L16,20.222,9.777,16.629H2.5A2.5,2.5,0,0,1,0,14.277H0l0-.147V4.5A2.5,2.5,0,0,1,2.5,2h15Zm0,1.667H2.5a.833.833,0,0,0-.833.833h0v9.63a.833.833,0,0,0,.833.833H10a.833.833,0,0,1,.417.112h0l5.167,2.982V15.8a.833.833,0,0,1,.736-.828h0l.1-.006H17.5a.833.833,0,0,0,.833-.833h0V4.5a.833.833,0,0,0-.833-.833ZM13.859,5.547A6.607,6.607,0,0,1,14.5,6.573l.05.1h2.627a.333.333,0,0,1,.307.2l.019.063.007.067v.78a.333.333,0,0,1-.266.327l-.067.007h-.894l-.027.083a8.112,8.112,0,0,1-.986,1.937l-.176.24-.141.175.187.132a9.931,9.931,0,0,0,1.667.9l.319.131.331.127a.334.334,0,0,1,.2.433l-.032.062L17.181,13a.333.333,0,0,1-.4.13,10.981,10.981,0,0,1-2.835-1.518l-.035-.028-.009.009A7.971,7.971,0,0,1,11.554,12.9l-.339.115-.313.094a.333.333,0,0,1-.338-.1l-.038-.051-.42-.69a.333.333,0,0,1,.2-.5,7.674,7.674,0,0,0,2.182-.906l.226-.15.146-.107-.15-.172a6.96,6.96,0,0,1-1.18-2l-.1-.276-.014-.042h-.894a.333.333,0,0,1-.307-.2L10.2,7.857l-.007-.067V7.01a.333.333,0,0,1,.266-.327l.067-.007h2.364l-.042-.06-.141-.181-.152-.18a.334.334,0,0,1,.075-.5l.062-.03.787-.285A.333.333,0,0,1,13.859,5.547Zm-7.281.411a.208.208,0,0,1,.169.087l.024.044L9.4,12.634a.209.209,0,0,1-.14.279l-.053.007H8a.208.208,0,0,1-.171-.089l-.024-.045-.576-1.508H4.641l-.575,1.508a.208.208,0,0,1-.1.11l-.047.018-.05.006h-1.2a.209.209,0,0,1-.207-.234l.014-.052L5.1,6.089a.208.208,0,0,1,.144-.125l.05-.006Zm-.637,1.9L5.136,9.982h1.6Zm8.812.262H12.907l.02.046a5.556,5.556,0,0,0,.845,1.32l.12.135.119-.151a5.935,5.935,0,0,0,.695-1.229Z" transform="translate(0 -0.333)" fill="#979797"/>
</svg>
