<svg xmlns="http://www.w3.org/2000/svg" xmlns:xlink="http://www.w3.org/1999/xlink" width="180" height="60" viewBox="0 0 180 60">
  <defs>
    <clipPath id="clip-fineJobLogo">
      <rect width="180" height="60"/>
    </clipPath>
  </defs>
  <g id="fineJobLogo" clip-path="url(#clip-fineJobLogo)">
    <g id="Group_40057" data-name="Group 40057" transform="translate(-50 -24)">
      <g id="Group_38891" data-name="Group 38891">
        <rect id="Rectangle_12562" data-name="Rectangle 12562" width="180" height="60" rx="4" transform="translate(50 24)" fill="none"/>
      </g>
      <g id="Group_38966" data-name="Group 38966" transform="translate(9305 222)">
        <g id="Group_38970" data-name="Group 38970" transform="translate(0 1)">
          <path id="Path_6127" data-name="Path 6127" d="M8,0h8a8,8,0,0,1,8,8v8H8A8,8,0,0,1,8,0Z" transform="translate(-9241 -181)" fill="#09a758"/>
          <path id="Path_6128" data-name="Path 6128" d="M8,0h8a8,8,0,0,1,0,16H0V8A8,8,0,0,1,8,0Z" transform="translate(-9213 -173)" fill="#09a758"/>
          <path id="Path_6129" data-name="Path 6129" d="M8,0h8a8,8,0,0,1,8,8v8H8A8,8,0,0,1,8,0Z" transform="translate(-9239 -183)" fill="#3f6745"/>
          <path id="Path_6130" data-name="Path 6130" d="M8,0h8a8,8,0,0,1,0,16H0V8A8,8,0,0,1,8,0Z" transform="translate(-9211 -171)" fill="#3f6745"/>
        </g>
        <path id="Path_6131" data-name="Path 6131" d="M1.32,18H4.16V12.44h6.46V10H4.16V7.1h6.6V4.66H1.32Zm11.42,0h2.84V4.66H12.74Zm14.68,0h2.74V4.66H27.32V13.3L21.14,4.66H18.22V18h2.84V9.04Zm5.38,0h9.44V15.54h-6.6v-3.1H42.1V10H35.64V7.1h6.6V4.66H32.8Zm15.58-1.06a4.962,4.962,0,0,0,3.58,1.3c2.74,0,4.7-1.46,4.7-4.62V4.66H53.82v8.92a1.98,1.98,0,0,1-2.08,2.14,3.019,3.019,0,0,1-2.12-.96Zm10.28-5.6a6.97,6.97,0,0,0,13.94,0,6.97,6.97,0,0,0-13.94,0Zm11.02,0a4.06,4.06,0,0,1-4.06,4.38c-2.46,0-4.04-1.9-4.04-4.38,0-2.5,1.58-4.38,4.04-4.38A4.049,4.049,0,0,1,69.68,11.34ZM74.6,18h7.24c2.54,0,3.88-1.6,3.88-3.6a3.233,3.233,0,0,0-2.56-3.28,2.963,2.963,0,0,0,2.3-3.06c0-1.78-1.3-3.4-3.84-3.4H74.6Zm2.84-7.98V7.08H81a1.473,1.473,0,1,1,0,2.94Zm0,5.56V12.44H81.1A1.559,1.559,0,0,1,82.82,14a1.533,1.533,0,0,1-1.72,1.58Z" transform="translate(-9176 -178)" fill="#3f6745"/>
      </g>
    </g>
  </g>
</svg>
